<svg width="50" height="50" viewBox="0 0 50 50" fill="none" xmlns="http://www.w3.org/2000/svg">
<g clip-path="url(#clip0_123_829)">
<path d="M4.6875 1.5625V3.125H3.125V4.6875H1.5625V1.5625H4.6875ZM45.3125 1.5625V3.125H46.875V4.6875H48.4375V1.5625H45.3125ZM3.125 46.875V45.3125H1.5625V48.4375H4.6875V46.875H3.125ZM46.875 45.3125V46.875H45.3125V48.4375H48.4375V45.3125H46.875ZM45.3125 0H4.6875V1.5625H45.3125V0ZM4.6875 50H45.3125V48.4375H4.6875V50ZM1.5625 4.6875H0V45.3125H1.5625V4.6875ZM48.4375 45.3125H50V4.6875H48.4375V45.3125Z" fill="white" fill-opacity="0.7"/>
<path d="M7.42188 14.0625H6.25V22.2656H7.42188V14.0625Z" fill="white" fill-opacity="0.7"/>
<path d="M14.4531 14.0625V15.2344H12.1094V22.2656H10.9375V15.2344H8.59375V14.0625H14.4531Z" fill="white" fill-opacity="0.7"/>
<path d="M20.3125 15.2344H16.7969V14.0625H20.3125V15.2344ZM20.3125 16.4062H21.4844V15.2344H20.3125V16.4062ZM16.7969 15.2344H15.625V17.5781H16.7969V15.2344ZM16.7969 18.75H20.3125V17.5781H16.7969V18.75ZM21.4844 18.75H20.3125V21.0938H21.4844V18.75ZM20.3125 21.0938H16.7969V22.2656H20.3125V21.0938ZM16.7969 19.9219H15.625V21.0938H16.7969V19.9219Z" fill="white" fill-opacity="0.7"/>
<path d="M28.5156 21.0938H22.6562V22.2656H28.5156V21.0938Z" fill="white" fill-opacity="0.7"/>
<path d="M10.9375 27.7344V28.9062H8.59375V35.9375H7.42188V28.9062H5.07812V27.7344H10.9375Z" fill="white" fill-opacity="0.7"/>
<path d="M13.2812 28.9062V31.25H16.7969V32.4219H13.2812V34.7656H17.9688V35.9375H12.1094V27.7344H17.9688V28.9062H13.2812Z" fill="white" fill-opacity="0.7"/>
<path d="M20.3125 34.7656H19.1406V28.9062H20.3125V34.7656ZM23.8281 34.7656H20.3125V35.9375H23.8281V34.7656ZM23.8281 27.7344H20.3125V28.9062H23.8281V27.7344ZM23.8281 30.0781H25V28.9062H23.8281V30.0781ZM23.8281 34.7656H25V33.5938H23.8281V34.7656Z" fill="white" fill-opacity="0.7"/>
<path d="M32.0312 27.7344V35.9375H30.8594V32.4219H27.3438V35.9375H26.1719V27.7344H27.3438V31.25H30.8594V27.7344H32.0312Z" fill="white" fill-opacity="0.7"/>
</g>
<defs>
<clipPath id="clip0_123_829">
<rect width="50" height="50" fill="white"/>
</clipPath>
</defs>
</svg>
