<svg width="173" height="48" viewBox="0 0 10.75rem 3rem" fill="none" xmlns="http://www.w3.org/2000/svg">
      <g clipPath="url(#clip0_65_634)">
        <path d="M4.5 1.5V3H3V4.5H1.5V1.5H4.5ZM43.5 1.5V3H45V4.5H46.5V1.5H43.5ZM3 45V43.5H1.5V46.5H4.5V45H3ZM45 43.5V45H43.5V46.5H46.5V43.5H45ZM43.5 0H4.5V1.5H43.5V0ZM4.5 48H43.5V46.5H4.5V48ZM1.5 4.5H0V43.5H1.5V4.5ZM46.5 43.5H48V4.5H46.5V43.5Z" fill="black"/>
        <path d="M7.5 19.5H6V12H7.5V19.5ZM12 19.5H7.5V21H12V19.5ZM12 10.5H7.5V12H12V10.5ZM12 13.5H13.5V12H12V13.5ZM12 19.5H13.5V18H12V19.5Z" fill="black"/>
        <path d="M22.5 10.5V12H19.5V21H18V12H15V10.5H22.5Z" fill="black"/>
        <path d="M25.5 15H24V10.5H25.5V15ZM30 10.5V15H25.5V16.5H30V19.5H31.5V10.5H30ZM30 19.5H25.5V21H30V19.5ZM25.5 18H24V19.5H25.5V18Z" fill="black"/>
        <path d="M43.5 19.5V22.5H42V21H34.5V22.5H33V19.5H34.5V12H36V19.5H40.5V12H36V10.5H42V19.5H43.5Z" fill="black"/>
        <path d="M24 36H16.5V37.5H24V36Z" fill="black"/>
        <path d="M33 27V37.5H31.5V31.5H30V30H31.5V27H33ZM27 33V27H25.5V37.5H27V34.5H28.5V33H27ZM30 31.5H28.5V33H30V31.5Z" fill="black"/>
        <path d="M36 31.5H34.5V27H36V31.5ZM40.5 27V31.5H36V33H40.5V36H42V27H40.5ZM40.5 36H36V37.5H40.5V36ZM36 34.5H34.5V36H36V34.5Z" fill="black"/>
      </g>
      <line className="hidden sm:block" x1="63.75" y1="2" x2="63.75" y2="46" stroke="black" strokeWidth="1.5"/>
      <path className="hidden sm:block" d="M84.68 15.62V18.38C83.38 19.08 82 19.36 80.52 19.36C76.58 19.36 73.9 16.52 73.9 12.78C73.9 8.8 76.68 6.14 80.84 6.14C82.14 6.14 83.32 6.4 84.58 6.94V9.54C83.42 8.92 82.28 8.74 81.06 8.74C78.52 8.74 76.86 10.22 76.86 12.78C76.94 15.38 78.76 16.76 80.88 16.76C82.28 16.76 83.64 16.32 84.68 15.62ZM94.6252 9.04V11.28H91.5852V19H88.8252V11.28H85.7852V9.04H94.6252ZM99.8642 22.8H97.0642L99.6642 17.98L95.5042 9.04H98.5442L100.884 15.1L103.124 9.04H106.024L99.8642 22.8ZM109.789 16.82H113.509V11.2H110.609V11.52C110.609 13.22 110.449 15.18 109.789 16.82ZM115.309 19H108.289V21.36H105.949V16.82H107.089C107.969 14.98 108.109 12.26 108.109 9.8V9.04H116.169V16.82H117.649V21.36H115.309V19ZM127.569 9.24V11.64C126.989 11.28 125.909 11.02 124.909 11.02C123.049 11.02 122.029 12.06 122.029 14C122.029 15.9 123.109 17 124.609 17C125.629 17 126.849 16.8 127.689 16.3V18.7C126.769 19.16 125.489 19.34 124.589 19.34C121.549 19.34 119.209 17.38 119.209 14.08C119.209 10.86 121.329 8.7 124.689 8.7C125.489 8.7 126.769 8.86 127.569 9.24ZM134.375 19.34C130.735 19.3 128.955 16.84 128.955 14.08C128.955 11.02 130.975 8.7 134.375 8.7C138.055 8.7 139.815 11.22 139.815 13.96C139.815 17 137.795 19.34 134.375 19.34ZM134.375 10.98C132.415 10.98 131.795 12.54 131.795 13.92C131.795 15.54 132.535 17.06 134.375 17.06C136.355 17.06 136.995 15.5 136.995 14.1C136.995 12.5 136.235 10.98 134.375 10.98ZM144.558 16.96H146.798C147.838 16.96 148.338 16.48 148.338 15.82C148.338 15.22 147.858 14.74 146.738 14.74H144.558V16.96ZM144.558 13.12H146.558C147.478 13.12 147.998 12.64 147.998 12.02C147.998 11.44 147.558 10.94 146.418 10.94H144.558V13.12ZM141.918 9.04C143.358 8.92 144.978 8.9 146.538 8.9C148.738 8.9 150.678 9.32 150.678 11.48C150.678 12.66 149.958 13.36 148.958 13.78C150.478 14.24 151.058 15.06 151.058 16.24C151.058 17.96 149.758 19.14 146.298 19.14C145.518 19.14 143.418 19.12 141.918 19V9.04ZM161.632 16.48V18.64C160.752 19.14 159.332 19.34 158.092 19.34C154.132 19.34 152.412 16.96 152.412 13.98C152.412 10.4 154.972 8.72 157.692 8.72C161.192 8.72 162.472 11.1 162.472 13.7C162.472 14.12 162.412 14.76 162.352 15.16H155.152C155.372 16.56 156.732 17.1 158.432 17.1C159.432 17.1 160.552 16.82 161.632 16.48ZM155.052 13.34H159.852C159.852 11.74 158.972 10.98 157.692 10.98C156.172 10.98 155.172 11.86 155.052 13.34ZM172.106 9.04V11.28H169.066V19H166.306V11.28H163.266V9.04H172.106ZM85.64 26.36V39H83.06V31.46L75.42 39H74.52V26.36H77.1V33.88L84.8 26.36H85.64ZM93.4802 33.28L96.5402 26.36H99.4402L94.6802 35.94C93.5002 38.32 92.2002 39.2 90.4802 39.2C89.8802 39.2 89.3602 39.12 88.8602 38.96V36.66C89.2202 36.78 89.6002 36.86 89.9602 36.86C90.7202 36.86 91.4402 36.58 92.0202 35.9L86.9602 26.36H89.9402L93.4802 33.28Z" fill="black"/>
      <defs>
        <clipPath id="clip0_65_634">
          <rect width="48" height="48" fill="white"/>
        </clipPath>
      </defs>
      </svg>